PathFileType	4	(X/Y/Z)	Patient4_TMGait_0pt5_01_left_19.trc.trc
DataRate	CameraRate	NumFrames	NumMarkers	Units	OrigDataRate	OrigDataStartFrame	OrigNumFrames
77.348066298342	77.348066298342	7	33	mm	77.348066298342	36	       141
Frame#	Time	L.ASIS			Sacral			L.Shoulder			Chest			R.Shoulder			Neck			R.ASIS			R.Thigh.Superior			R.Thigh.Lateral			R.Thigh.Inferior			R.Patella			L.Thigh.Superior			L.Thigh.Lateral			L.Thigh.Inferior			L.Patella			L.Shank.Superior			L.Shank.Lateral			L.Shank.Inferior			R.Shank.Superior			R.Shank.Lateral			R.Shank.Inferior			R.Heel			R.Midfoot.Superior			R.Midfoot.Lateral			R.Toe			L.Heel			L.Midfoot.Lateral			L.Midfoot.Superior			L.Toe			L.Elbow			L.Wrist			R.Elbow			R.Wrist			
		X1	Y1	Z1	X2	Y2	Z2	X3	Y3	Z3	X4	Y4	Z4	X5	Y5	Z5	X6	Y6	Z6	X7	Y7	Z7	X8	Y8	Z8	X9	Y9	Z9	X10	Y10	Z10	X11	Y11	Z11	X12	Y12	Z12	X13	Y13	Z13	X14	Y14	Z14	X15	Y15	Z15	X16	Y16	Z16	X17	Y17	Z17	X18	Y18	Z18	X19	Y19	Z19	X20	Y20	Z20	X21	Y21	Z21	X22	Y22	Z22	X23	Y23	Z23	X24	Y24	Z24	X25	Y25	Z25	X26	Y26	Z26	X27	Y27	Z27	X28	Y28	Z28	X29	Y29	Z29	X30	Y30	Z30	X31	Y31	Z31	X32	Y32	Z32	X33	Y33	Z33	

36	25.902500000000	857.147141583098	960.376617189226	317.255963329115	651.079246110492	999.675892223275	486.996389936212	795.544779578655	1434.342810458854	311.329021442705	915.881287760483	1362.432518615379	459.163573032992	847.819114231449	1429.331980855573	643.238429067728	811.567579504396	1491.245698930379	462.608900832376	883.858964444717	932.303639034722	590.554545579021	890.894930966433	721.226557700546	565.175099727179	792.618320012576	623.939354641478	627.046396591317	860.264167564631	556.879054027524	551.283053499779	841.629262232012	456.389913261970	563.271420311194	931.956034119398	766.057784851560	351.877848248195	866.938158290897	637.441960839950	288.841488304838	962.232930520953	572.848183568028	353.697860089727	973.441416228297	500.954181661837	361.472574164241	951.753551912817	426.363733933400	352.222902595222	872.177141449545	306.212458473528	298.048916866421	931.891360930558	198.261806078920	367.532589864330	776.873529694394	384.237215313043	568.240070430128	669.800281984376	317.975858039407	629.175375295688	672.707153793326	212.022691176407	571.987396125861	486.697446153254	93.133180692091	543.400866295122	664.678137589519	103.827331510044	583.076285988100	563.870475388982	62.384914493552	617.195112996542	765.841571251024	36.166412441997	611.112341027457	813.736990717359	37.901326456307	404.967283320130	889.064150113275	36.010691709675	325.287623090685	970.603263482027	97.992206783009	353.030462552050	1099.723998239636	48.669013651579	327.130382778965	712.021316375705	1089.749404609207	197.323752677332	778.455430379237	836.679844694380	177.843721041313	915.854232935192	1094.050152171491	763.376434160474	1151.466572982202	1063.529803182358	679.080867063361	
37	25.915428571429	858.508152107445	961.497813610548	314.374181079266	651.873377433934	1000.615246320664	483.396910799461	796.300740212742	1435.617222212886	308.184287614557	916.125928135495	1363.931344814571	456.503384436230	847.061442411074	1430.549763994398	640.295169616255	811.426795521787	1492.369867953731	459.570749270113	884.188593530853	933.498866169129	587.526578838240	894.147327698486	722.638091574216	563.099071245847	797.695832365805	624.252422679888	625.227604792352	866.954295143183	557.648624680621	549.990898985319	849.309211055278	455.752498125479	563.645751783937	931.889611500009	765.690146327570	349.006970981080	864.994204042135	637.500266982638	286.857779182539	959.504774374709	572.055259385942	351.768537814345	969.938477291488	500.351029050375	360.249349343513	947.929239213545	425.806670001975	351.127902395937	867.866511097902	305.996835923135	296.991293915526	926.385116771037	197.910743928564	367.163924961785	782.319514221513	384.592665484651	568.252499385164	672.928519913704	321.747293933230	628.608011253285	673.627494663245	215.237168381639	572.374508116696	484.363335010163	102.818818402569	543.429571047525	662.351673539896	105.387343615744	583.540298959366	559.846694647755	68.247972894411	617.169209072881	759.563409533661	35.710112319147	611.141677378247	807.261387495450	37.878841762600	404.878969174796	882.594150636812	35.935869993805	325.174900149742	964.171177615038	97.888780188840	352.962189867100	1093.337014472655	48.448800607220	327.065578448350	715.576542650935	1090.596880608313	192.919652887486	790.352458892043	839.867828543093	172.879569956675	906.060394365444	1093.279559342848	760.906095961200	1141.149363798655	1047.709311333865	680.486124427074	
38	25.928357142857	859.793304619579	962.429965027163	311.588234017417	652.569316796970	1001.424819452341	479.827881806889	797.220107605403	1436.776454291868	305.044086734375	916.402333435409	1365.259528226797	453.909663794135	846.239147665519	1431.580944734352	637.390299732446	811.319356602614	1493.359519586546	456.557136221739	884.361043301747	934.557437419687	584.546838681280	897.860925419151	724.110416835638	561.055976931341	803.517669491459	624.457692179359	623.484248081840	874.476387956591	558.474585323323	548.701404213376	857.841943985103	455.205210357377	563.920594355514	931.524543958968	765.073595250938	346.250039862319	862.823922474139	637.530942648534	284.755605180755	956.422237338754	571.198143178086	349.841907635979	966.036964850571	499.665917468471	358.878315492433	943.766156474850	425.194056589375	349.862264152885	863.264043729504	305.652841247496	295.849934745182	920.739583437156	197.521968128682	366.718630251973	788.698465651149	384.986340391075	568.195231368818	677.015500826813	325.772583554253	627.976835675756	675.341700205392	218.803258410516	572.666075035984	482.933462669153	113.598112631822	543.247443383720	660.461543046573	107.327454625688	583.853038388552	556.337981778553	75.078654011145	617.010223528721	753.294077336803	35.103980510161	611.234412793768	800.727984952510	37.827735031761	404.797641437687	876.071334905154	35.820027098596	325.064306360365	957.700324861022	97.725922426494	352.900556542564	1086.910597764794	48.134667716417	327.045944361989	718.925907467335	1091.536989194424	188.276521312987	802.416537484798	843.544945503754	167.998977632141	896.117538390204	1092.467610250541	758.171583408178	1129.744059277152	1031.359733424200	682.058597248255	
39	25.941285714286	860.942576596240	963.160933798877	308.893263538435	653.119353779485	1002.062219543590	476.332103763754	798.282927913965	1437.760775395043	301.933416874692	916.700106859296	1366.356219897599	451.406220965655	845.368297206596	1432.400358632282	634.547677332524	811.266160084416	1494.181529532727	453.579347828494	884.347433483134	935.441852038629	581.638848239955	901.981568281172	725.666622010325	559.018298103289	810.031897457123	624.588701985173	621.805521486688	882.755458746569	559.399469259883	547.396607565298	867.157102135175	454.795000050491	564.022319813884	930.893019904714	764.275910967267	343.587676899538	860.503412616546	637.549143308541	282.536727987142	953.088165426598	570.308767646574	347.888584001204	961.847721812160	498.921751799597	357.346046805028	939.362763801580	424.540195241073	348.432714439482	858.457885525444	305.210699633126	294.607099192747	915.004481314909	197.109196073724	366.192990239955	795.952884479334	385.454776913650	568.001491702421	682.050889567852	330.046669954488	627.251516123654	677.831024992216	222.742647537134	572.805124152657	482.485307116897	125.432660673781	542.824278065278	659.025551256936	109.759471786373	583.980769368736	553.431577127178	82.921992780537	616.693196044822	747.098441705346	34.342487926746	611.389001923328	794.165632149984	37.759044530951	404.715143773640	869.519936126848	35.678526399696	324.945998668506	951.209205445905	97.527278746810	352.829614884400	1080.461181156437	47.768416840422	327.047838826958	722.160488299558	1092.483807928453	183.398912108347	814.607962420344	847.630708386827	163.195405833674	886.105383204957	1091.602099284777	755.212605287681	1117.191411000723	1014.607815179280	683.750688457851	
40	25.954214285714	861.913217035404	963.699347236729	306.286679374896	653.489447022085	1002.503921711482	472.943313875463	799.451675916501	1438.534240866613	298.883032277400	917.003225630756	1367.189269318436	449.015844993958	844.462382168523	1433.001715422875	631.793323658947	811.282235944708	1494.822395337098	450.656255626526	884.133957273009	936.134944628510	578.831356059433	906.423839108444	727.342693004564	556.964434134703	817.134797680008	624.704466337045	620.175268385424	891.665139284725	560.484554083274	546.060998641258	877.145101840195	454.586362812942	563.892666576649	930.042158736163	763.362442696886	340.972375952289	858.073029463505	637.558117263116	280.220801312361	949.590933988708	569.406732759413	345.873606672358	957.474130973287	498.140264692789	355.651676894302	934.807255856442	423.859687489288	346.856033257573	853.516855826986	304.703499514268	293.267409069848	909.219178674604	196.685068543566	365.589174421590	803.984989886438	386.051373135684	567.614444050682	687.981782631270	334.562285103709	626.403887245755	681.056588269845	227.066962320261	572.739870477237	483.071124093931	138.204472348241	542.140218373041	658.080999005565	112.777262933414	583.898335065141	551.223133227087	91.754064660328	616.197395402208	741.082991937723	33.453656507326	611.586230541995	787.597205332281	37.682436062188	404.625668429768	862.958693761529	35.524631030325	324.814019354962	944.711033423478	97.314805606402	352.736951643195	1074.000956525069	47.389229443119	327.049868658845	725.382286131047	1093.366852677948	178.314239167772	826.888948470008	852.046789841740	158.467465910627	876.100218451573	1090.685895503839	752.074145072321	1103.440511361400	997.600342415332	685.510596444512	
41	25.967142857143	862.683857435946	964.071293191380	303.772366510204	653.660876670990	1002.748266323320	469.683947955425	800.678752657215	1439.086330590435	295.924872241534	917.292143615823	1367.757209932963	446.758929413705	843.529291329799	1433.398598352363	629.151817371648	811.374924476920	1495.288228203579	447.810508606850	883.724320755756	936.641246324826	576.157076617065	911.078524970422	729.180432809475	554.880525731065	824.679771807921	624.880285977763	618.572795701041	901.036939069584	561.800921487706	544.680830220597	887.663300308293	454.653284791914	563.491429101093	929.025177645872	762.387631400645	338.346663924060	855.543044101338	637.552876645444	277.844628648534	945.997537078216	568.501581438929	343.770715254058	953.001708975829	497.340426274818	353.811073383553	930.169529791114	423.166680335667	345.160903709334	848.488404711330	304.163982529175	291.855064341589	903.410627614605	196.260218766667	364.916421623151	812.665207426745	386.838119070709	566.992455875425	694.718046773948	339.302336283949	625.409915813370	684.969152915781	231.765929840947	572.429146748172	484.714336172827	151.699710818848	541.190059662812	657.692286997687	116.433492510143	583.589664354776	549.816544318661	101.460617853134	615.508572745415	735.406170066016	32.505253820117	611.785399328692	781.037949495987	37.605779558850	404.526197447170	856.399897736941	35.369069449645	324.666659485591	938.213739289198	97.106077922156	352.615815687618	1067.537447276654	47.028086562890	327.036021776195	728.692843632939	1094.136613408698	173.070794079732	839.223584870937	856.722902491695	153.822309885286	866.174789363848	1089.739272343846	748.802864925697	1088.453446710874	980.503208013487	687.286224604008	
42	25.980071428571	863.254168352076	964.315493891626	301.360691819091	653.629558773511	1002.816707805172	466.565408257101	801.915575311618	1439.430834074794	293.087611780852	917.547061306659	1368.086829985292	444.651759394910	842.571308479229	1433.622955346803	626.642859372669	811.543696395402	1495.602570658519	445.064351255503	883.138137370431	936.987464961981	573.648037906029	915.822377649897	731.220135103729	552.761366659888	832.491862344369	625.196366470276	616.975677305525	910.674725138983	563.419038186037	543.244564698919	898.546218208092	455.069969606950	562.798552988209	927.891294784917	761.391564840692	335.662353534110	852.905591465801	637.525013098340	275.457691050533	942.351857335027	567.596689147376	341.574127129808	948.492552666685	496.537940314594	351.859624787663	925.497719628563	422.474818231430	343.389242015968	843.402616166661	303.622332340776	290.407099488337	897.593839503821	195.843448461147	364.191455325593	821.844360630225	387.876083365883	566.113553443519	702.142386967473	344.232429746739	624.252739019747	689.519874093483	236.796982209517	571.848090952621	487.409184671473	165.603118574997	539.988163699457	657.954758684356	120.719657812659	583.047936799205	549.323228099540	111.824981525492	614.622528615217	730.286718091694	31.603341966024	611.924331614029	774.495658279803	37.535228071162	404.416129595615	849.850013135374	35.220178624192	324.505784057619	931.720971944976	96.913242325033	352.465317456480	1061.074130413828	46.705165350179	326.996943562655	732.183021424227	1094.767690412861	167.733661567858	851.577498876334	861.601558038376	149.277278508144	856.398468357872	1088.799527102985	745.444650337025	1072.210956608702	963.499998249342	689.028291594048	
